<svg width="18" height="20" viewBox="0 0 18 20" fill="none" xmlns="http://www.w3.org/2000/svg">
<path d="M8.49171 13.3525C8.36038 13.1492 8.41872 12.8779 8.62202 12.7466L13.0394 9.89287C13.2427 9.76153 13.5139 9.81987 13.6453 10.0232L17.7015 16.302C17.895 16.6014 17.669 16.9942 17.313 16.9776L14.7105 16.856C14.5235 16.8473 14.3515 16.9583 14.2826 17.1324L13.3235 19.5548C13.1923 19.8862 12.7414 19.9307 12.548 19.6313L8.49171 13.3525Z" fill="#D26A6A"/>
<path d="M9.44969 13.3525C9.58103 13.1492 9.52269 12.8779 9.31939 12.7466L4.90204 9.89287C4.69874 9.76153 4.42746 9.81987 4.29612 10.0232L0.239875 16.302C0.0464481 16.6014 0.272366 16.9942 0.628435 16.9776L3.2309 16.856C3.41795 16.8473 3.58989 16.9583 3.65882 17.1324L4.61786 19.5548C4.74907 19.8862 5.20002 19.9307 5.39344 19.6313L9.44969 13.3525Z" fill="#D26A6A"/>
<path d="M15.9926 7.01193C15.9926 10.8845 12.8533 14.0239 8.98068 14.0239C5.1081 14.0239 1.96875 10.8845 1.96875 7.01193C1.96875 3.13935 5.1081 0 8.98068 0C12.8533 0 15.9926 3.13935 15.9926 7.01193Z" fill="#FFD438"/>
<path d="M9.82824 10.5183H8.45507V4.81139H7.0332V3.70117H9.82824V10.5183Z" fill="#FEFEFE"/>
</svg>
