<svg width="18" height="20" viewBox="0 0 18 20" fill="none" xmlns="http://www.w3.org/2000/svg">
<path d="M8.49171 13.3525C8.36038 13.1492 8.41872 12.8779 8.62202 12.7466L13.0394 9.89287C13.2427 9.76153 13.5139 9.81987 13.6453 10.0232L17.7015 16.302C17.895 16.6014 17.669 16.9942 17.313 16.9776L14.7105 16.856C14.5235 16.8473 14.3515 16.9583 14.2826 17.1325L13.3236 19.5548C13.1923 19.8862 12.7414 19.9307 12.548 19.6313L8.49171 13.3525Z" fill="#896136"/>
<path d="M9.44969 13.3525C9.58103 13.1492 9.52269 12.8779 9.31939 12.7466L4.90204 9.89287C4.69874 9.76153 4.42746 9.81987 4.29612 10.0232L0.239869 16.302C0.0464418 16.6014 0.27236 16.9942 0.628429 16.9776L3.2309 16.856C3.41795 16.8473 3.58989 16.9583 3.65882 17.1325L4.61785 19.5548C4.74907 19.8862 5.20001 19.9307 5.39344 19.6313L9.44969 13.3525Z" fill="#896136"/>
<path d="M15.9926 7.01193C15.9926 10.8845 12.8533 14.0239 8.98068 14.0239C5.1081 14.0239 1.96875 10.8845 1.96875 7.01193C1.96875 3.13935 5.1081 0 8.98068 0C12.8533 0 15.9926 3.13935 15.9926 7.01193Z" fill="#AF8A64"/>
<path d="M9.72119 6.75787C10.351 6.83578 10.8314 7.05004 11.1625 7.40063C11.4936 7.74474 11.6592 8.17974 11.6592 8.70563C11.6592 9.10168 11.5553 9.46526 11.3476 9.79638C11.1463 10.121 10.8379 10.3807 10.4224 10.5755C10.0133 10.7703 9.51018 10.8676 8.91287 10.8676C8.43242 10.8676 7.96171 10.7995 7.50074 10.6631C7.04626 10.5268 6.6632 10.3385 6.35156 10.0983L6.89694 9.04649C7.14365 9.25425 7.44231 9.41656 7.7929 9.53343C8.1435 9.6438 8.50708 9.69899 8.88365 9.69899C9.31865 9.69899 9.65951 9.61134 9.90622 9.43604C10.1529 9.26074 10.2763 9.01727 10.2763 8.70563C10.2763 8.40048 10.1594 8.1635 9.9257 7.9947C9.69846 7.82589 9.34462 7.74149 8.86417 7.74149H8.20193V6.82604L9.72119 5.05358H6.67294V3.94336H11.3573V4.83933L9.72119 6.75787Z" fill="#FEFEFE"/>
</svg>
