<svg width="56" height="41" viewBox="0 0 56 41" fill="none" xmlns="http://www.w3.org/2000/svg">
<path d="M5.21484 14.6504C6.13015 15.3586 7.09543 16.0365 7.84961 16.8906C8.36728 17.5989 9.16248 18.1023 10.0107 18.4658C10.026 18.528 10.0529 18.5886 10.0869 18.6426C10.081 18.6414 10.0744 18.6381 10.0674 18.6357C10.7463 20.2876 12.8042 20.7986 14.3232 21.6504C15.6175 22.3693 16.6027 23.4754 18.0088 24.0449C19.1419 24.632 20.4822 24.5793 21.7412 24.6875C22.5329 24.7487 23.2118 25.1624 23.8447 25.5576C24.4013 25.9083 24.2375 26.5948 24.3281 27.1172C24.4082 28.0243 24.8181 29.1833 25.9512 29.3916C27.0536 29.6116 28.149 29.9751 29.2891 29.9434C29.8233 29.7833 30.1705 29.3276 30.5977 29.0146C31.0716 28.6687 31.1986 28.1073 31.5586 27.6885C31.9022 27.3991 32.3321 27.2111 32.7168 26.9688C33.5804 26.4722 34.3653 25.8632 35.2842 25.4443C35.6501 25.249 36.1575 25.2596 36.4717 25.5361C37.1808 26.0621 37.634 26.9741 38.6514 27.0742C40.4245 27.2931 42.4142 27.5876 44.0273 26.7041C45.6911 25.7757 46.5398 24.0743 46.9258 22.4141C46.9916 22.3035 47.0506 22.1871 47.0859 22.0625C47.453 21.6625 47.5222 21.0565 48.0586 20.8047C48.9468 20.5482 49.8868 20.4759 50.8174 20.457C52.0199 20.0676 52.9521 19.2253 54.0957 18.7275C54.3863 18.6017 54.7146 18.6026 55.0322 18.585C54.8981 18.9249 54.6456 19.2687 54.7842 19.6416C54.996 20.1758 55.4586 20.6092 55.5928 21.1729L55.5986 21.1797C55.8128 22.0091 55.7912 22.8728 55.75 23.7188C55.0323 23.8634 54.2943 23.7933 53.5684 23.8486C53.2674 23.8442 53.1199 24.105 52.9482 24.2803C52.2659 25.0568 51.9016 25.9983 51.4521 26.8877C51.1203 27.2407 50.7844 27.6008 50.7256 28.082C49.7361 27.655 48.6961 27.2523 47.8926 26.5664C47.3316 26.1334 48.3537 25.5323 47.9551 25.0664C47.5374 24.7334 46.983 24.5698 46.4512 24.4463C46.3746 24.4981 46.2208 24.6014 46.1455 24.6543C46.6903 24.8131 47.2413 24.9647 47.752 25.207C47.632 25.687 47.06 26.2754 47.5879 26.7119C48.4138 27.4496 49.4916 27.9015 50.541 28.3262C50.2198 28.7427 49.9707 29.3431 50.3623 29.7891C50.9894 30.2691 51.9097 29.947 52.6133 30.2588C53.0649 30.5669 52.9524 31.1677 52.7607 31.5771C52.356 32.3031 51.5898 32.8178 51.2168 33.5625C51.0545 33.8425 50.9485 34.1742 50.6475 34.3613C50.0533 34.4343 49.4491 34.3765 48.8525 34.3965C48.8972 34.7847 49.094 35.1084 49.4434 35.3438C49.0329 35.6025 48.5507 35.5116 48.0908 35.4551C47.8755 34.8703 47.6618 34.2642 47.1924 33.7959C46.6358 33.2052 46.3147 32.4589 45.6699 31.9365C45.2593 31.5883 44.7197 31.4113 44.2314 31.1748C43.1537 30.5912 41.7791 30.8138 40.7002 30.2197C40.6308 29.2761 40.556 28.3338 40.4736 27.3926C40.3865 27.3926 40.2129 27.3936 40.126 27.3936C40.2142 28.3078 40.2621 29.2246 40.3574 30.1377C40.3658 30.3646 40.6028 30.4926 40.7969 30.5938C41.8581 31.1031 43.1637 30.9167 44.1943 31.4932C44.9133 31.7826 45.6286 32.1568 46.0322 32.791C46.637 33.7558 47.6747 34.5678 47.7559 35.7373C47.5465 36.0996 47.2873 36.5573 46.7969 36.6396C46.3464 36.5266 45.9554 36.1157 45.4473 36.291C45.072 36.5981 44.6778 36.8822 44.2578 37.1387C44.0554 36.4668 43.4846 35.9725 43.1328 35.3701C42.8893 35.0466 43.04 34.6387 42.9941 34.2764C42.5107 34.1564 41.9801 34.0428 41.4932 34.2168C41.3038 34.3462 41.2792 34.5839 41.1699 34.7627C40.9288 34.7674 40.6872 34.7701 40.4473 34.7725C40.3426 34.9207 40.243 35.0743 40.1289 35.2178C39.5348 35.3295 38.9185 35.3177 38.3174 35.293C38.061 34.9647 37.985 34.55 37.7051 34.2324C37.3745 33.8442 37.3866 33.2828 36.9561 32.958C36.5843 32.8804 36.1619 33.0082 35.8184 32.8623C35.5348 32.1764 35.1967 31.5092 34.9531 30.8115C34.5449 29.6845 34.3447 28.5022 33.8789 27.3916C33.7789 27.1787 33.6991 26.8915 33.377 26.9102C33.064 26.8172 32.8375 27.0833 32.5928 27.2021C32.8858 27.248 33.2086 27.2001 33.4863 27.3154C34.1335 28.8192 34.3089 30.4614 35.0596 31.9346C35.2747 32.3357 35.3699 32.7828 35.6299 33.165C36.0157 33.3097 36.4475 33.2465 36.8545 33.2441C37.1569 34.0465 37.6598 34.7689 38.0586 35.5312C38.7916 35.7583 39.5896 35.5725 40.3438 35.5254C40.4426 35.376 40.5373 35.2238 40.6338 35.0732C40.9243 35.0744 41.2163 35.0742 41.5068 35.0684C41.548 34.865 41.5895 34.6641 41.6318 34.4619C41.9789 34.4607 42.3248 34.4582 42.6719 34.457C42.3627 35.6111 43.767 36.2724 43.8848 37.3359C43.5836 37.5712 43.2039 37.7987 43.165 38.1904C43.0534 38.5563 43.1451 39.0953 42.6631 39.2637C42.1207 39.4625 41.5096 39.383 40.9473 39.5146C40.8637 39.9441 41.0486 40.4119 40.8145 40.8096C40.3485 41.0767 39.7736 40.8786 39.2617 40.8975C38.8054 40.8612 38.3398 41.0949 37.8965 40.9551C37.5058 40.6656 37.2875 40.2297 36.8887 39.9473C36.6488 39.8767 36.3972 39.8367 36.1514 39.7861C36.0914 39.4744 36.0432 39.1565 36.0879 38.8389C36.2114 38.0117 35.8867 37.2041 35.8984 36.377C35.9477 36.0076 35.5038 35.8675 35.2344 35.6875C35.0391 36.0452 35.0051 36.5077 34.665 36.7842C34.0508 37.0842 33.1661 37.4289 32.5625 36.9336C32.213 36.4947 32.0338 35.971 31.7373 35.5039C31.3562 35.5027 30.9749 35.5008 30.5938 35.502C30.5655 35.8078 30.5398 36.1149 30.5068 36.4219C30.2646 36.4654 30.0235 36.5088 29.7812 36.5488C29.7871 35.883 29.4811 35.2818 29.2246 34.6748C28.8363 33.6782 29.4069 32.6726 29.3516 31.6631C29.3305 31.1902 29.4515 30.6444 29.0752 30.2539C28.9434 30.048 28.6415 30.0776 28.4238 30.0117C28.7532 30.3505 29.0996 30.7292 29.0068 31.2139C29.1186 32.1951 28.7043 33.1377 28.7549 34.1143C28.0524 34.1037 27.1785 34.2848 26.6914 33.6953C26.2397 33.0836 26.3511 32.2838 25.9912 31.6309C24.5276 31.6685 23.0779 31.382 21.6143 31.4102C21.0942 31.4102 20.8946 31.9749 20.3945 32.0479C19.7734 32.182 19.2613 32.572 18.6201 32.6426C18.7613 32.3509 18.9051 32.0483 19.1768 31.833C19.5168 31.5212 20.0176 31.4298 20.3906 31.1592C20.8507 30.7368 20.774 30.0879 21.0811 29.5938C21.3116 29.2009 21.4993 28.7892 21.6123 28.3564C22.4053 28.2988 23.2023 28.2997 23.9941 28.2197C24.2211 28.2291 24.3848 28.0961 24.4648 27.915C23.4388 27.9574 22.4045 27.9479 21.3867 28.0938C21.1973 28.5937 20.9789 29.082 20.7236 29.5596C20.4718 30.0008 20.5361 30.5647 20.1572 30.9482C19.7962 31.1705 19.3481 31.2705 19.0293 31.5479C18.6481 31.8408 18.4394 32.2587 18.2041 32.6445C17.917 32.4845 17.5244 32.3527 17.4785 32.0068C17.3185 31.188 17.3272 30.3456 17.0742 29.542C16.8647 28.9515 16.1009 28.7645 15.7656 28.248C15.3692 27.8798 15.3805 27.3333 15.3711 26.8545C15.6982 26.4005 16.2276 26.1167 16.6299 25.7227C16.5616 24.6085 15.707 23.6944 15.334 22.6543C15.2728 22.3401 14.9186 22.2056 14.6621 22.0361C14.7904 22.3868 14.9498 22.7262 15.1016 23.0674C14.3509 23.098 13.6291 22.9275 12.916 22.751C12.7667 23.7969 12.9501 24.8655 12.7324 25.9043C12.4182 26.3145 11.7807 26.1889 11.3066 26.2383C10.7442 26.223 10.1267 26.4025 9.59961 26.166C9.30902 25.292 8.90195 24.4215 8.92773 23.4922C8.94656 23.1321 8.61414 22.8174 8.20703 22.8232C7.71293 23.2609 7.76309 23.945 7.56543 24.5039C7.24186 24.5157 6.91419 24.5392 6.5918 24.5039C6.3612 24.3427 6.23915 24.0927 6.02148 23.9209C5.36728 23.7809 4.63757 23.8649 4.04102 24.1426C3.62097 24.3261 3.76682 24.7947 3.71387 25.1289C2.99853 24.8454 3.52078 24.0427 3.17383 23.5732C2.75966 23.1814 2.11487 23.287 1.57715 23.2188C1.18535 23.0634 0.785068 22.9252 0.366211 22.8369C0.214426 22.4239 0.0835405 22.0035 0 21.5752C0.181164 21.534 0.361626 21.4869 0.538086 21.4316C0.912253 21.1081 0.852359 20.6122 0.945312 20.1934C1.28534 19.8007 1.92978 19.8335 2.36621 19.5596C2.90981 19.1889 3.26315 18.6382 3.49023 18.0723C3.67848 17.5229 4.27588 17.2321 4.69238 16.8369C4.47937 16.4982 4.06417 16.246 3.98535 15.8555C4.22419 15.3401 4.78421 15.0292 5.21484 14.6504ZM14.4805 32.3115C15.118 32.5387 15.5064 33.0755 16.0781 33.3896C17.1253 33.5461 18.2078 33.2614 19.249 33.499C19.3407 34.5415 18.893 35.7837 19.7695 36.6426C20.3611 36.9895 21.0266 37.265 21.4619 37.793C21.0019 38.2589 20.7793 38.8415 20.4805 39.3887C20.0877 39.5638 19.6327 39.5241 19.207 39.5781C19.1953 39.7899 19.1844 40.0031 19.1738 40.2148C18.5773 40.1913 18.1371 39.7866 17.6123 39.583C17.297 38.9159 17.3231 38.1417 17.2549 37.4229C16.7419 37.3275 16.3014 37.0541 15.959 36.707C15.9721 36.3942 16.2101 36.0704 15.9902 35.7764C15.4419 34.6998 14.7583 33.6807 14.1064 32.6523C14.1996 32.5675 14.3877 32.4 14.4805 32.3154V32.3115ZM21.6143 31.5322C23.0285 31.4969 24.4336 31.8189 25.8467 31.7295C25.9854 32.5165 25.969 33.5082 26.7969 34.0059C27.3711 34.3894 28.1073 34.2298 28.7686 34.2393C28.9863 34.9638 29.5402 35.6486 29.3779 36.4297C29.1333 36.632 28.8824 36.8271 28.6201 37.0117C28.353 37.1941 27.9454 37.1478 27.7266 37.3984C27.316 37.8207 26.8664 38.2184 26.5029 38.6748C26.4747 38.9136 26.4698 39.1536 26.4521 39.3936C25.9945 39.5476 25.5075 39.5031 25.0322 39.4619C24.1863 39.3714 23.531 40.0453 22.6875 39.9619C22.5993 39.4913 22.4636 39.0209 22.0576 38.6855C21.7129 38.4267 21.8421 38.0148 21.7422 37.6748C21.3386 37.083 20.6364 36.7635 19.9951 36.4258C19.2236 35.5798 19.7572 34.4224 19.5596 33.4482C19.3125 33.086 18.7342 33.1442 18.3271 33.042C18.3743 32.9701 18.4669 32.8256 18.5127 32.7539C19.3104 32.7892 19.9046 32.2437 20.6553 32.1025L20.6572 32.1035C21.0585 32.0317 21.2519 31.6534 21.6143 31.5322ZM15.2295 27.8955C15.4859 28.219 15.7205 28.5695 16.084 28.8096C16.3228 28.9908 16.6465 29.1289 16.7383 29.4219C17.0347 30.2796 16.9397 31.2032 17.208 32.0645C17.3245 32.4645 17.7985 32.6045 18.1738 32.7539C18.1232 32.8363 18.0193 32.9989 17.9688 33.0801C17.39 33.1107 16.81 33.1571 16.2324 33.1289C15.7678 32.8501 15.4217 32.4399 14.9336 32.1904C14.3806 31.9316 14.0531 31.4322 13.5742 31.0898C12.6682 31.7087 11.9138 32.483 11.1113 33.2031C10.8938 33.1361 10.6783 33.0672 10.4619 32.999C10.5078 33.4178 10.5327 33.8377 10.5127 34.2588C10.0879 34.2411 9.64744 34.222 9.2627 34.042C8.91579 33.9266 8.58713 33.6604 8.19434 33.7686C7.69217 33.8392 7.2428 34.0727 6.74414 34.1504C6.52647 34.1045 6.27582 33.9106 6.37109 33.6953C6.59465 33.4141 6.94629 33.1947 6.94629 32.8135C6.95376 32.4396 7.44163 32.1901 7.3252 31.8066C7.18742 31.182 6.18826 31.2009 6.05762 30.5762C6.34001 30.5597 6.62541 30.5534 6.91016 30.5439C7.01846 30.0511 7.29028 29.6109 7.53613 29.165C7.88788 29.2074 8.25718 29.2174 8.57715 29.3691C8.81237 29.5562 8.90311 29.8395 9.05957 30.0771C9.67481 30.156 9.90201 29.568 10.3184 29.2949C10.7842 29.0008 11.4032 29.0017 11.9443 29.084C12.2596 29.1958 12.4776 29.4704 12.8164 29.541C13.3541 29.6563 13.917 29.5924 14.4512 29.4912H14.4531C14.5625 28.91 14.7425 28.3203 15.2295 27.8955ZM8.52344 22.9443C8.54579 24.0315 8.87857 25.0826 9.2998 26.0957C9.46467 26.4425 9.96334 26.4057 10.3115 26.4092C10.9586 26.3774 11.6132 26.4041 12.2568 26.3076C12.6061 26.2558 13.006 26.0837 13.0732 25.7393C13.278 24.8368 13.1411 23.907 13.2246 22.9951C13.907 23.1528 14.612 23.1977 15.3145 23.1895C15.6745 23.9412 16.1285 24.6638 16.3262 25.4697C15.8874 25.7462 15.4588 26.0495 15.1436 26.4424C14.8636 26.7565 15.098 27.1748 15.1133 27.5312C14.6439 28.0336 14.2449 28.5982 14.1543 29.2617C13.759 29.2629 13.3613 29.2855 12.9648 29.2549C12.626 29.1619 12.3978 28.877 12.0508 28.7969C11.4672 28.6816 10.8187 28.7029 10.2822 28.9629C9.88923 29.1723 9.62271 29.5158 9.32031 29.8135C9.16392 29.59 9.04495 29.3336 8.82031 29.1572C8.43327 28.9185 7.94525 28.9068 7.49707 28.8516C7.34062 28.2975 7.72075 27.7971 7.76562 27.2549C7.7868 26.9207 8.0679 26.6721 8.17969 26.3662C8.06791 26.0485 7.6793 25.8245 7.72754 25.4668C7.68648 24.6386 8.06634 23.8687 8.2334 23.0664H8.23438C8.30615 23.0358 8.45049 22.9749 8.52344 22.9443ZM15.0996 16.668C15.5738 16.8986 16.1379 17.1052 16.3779 17.5723C16.7144 18.1123 17.108 18.6729 17.708 19.0059C18.9976 19.6083 20.3616 20.0849 21.5947 20.7803C21.5641 21.0427 21.4853 21.3105 21.543 21.5752C21.9219 22.0583 22.6345 22.0624 23.2285 22.1035C24.1345 22.1294 25.0668 22.247 25.9434 21.9717C26.0563 22.2928 26.1917 22.6072 26.3164 22.9248C25.6493 23.4213 25.0701 24.0062 24.7383 24.7334C24.803 24.7793 24.9331 24.8672 24.999 24.9131C25.2002 24.5848 25.387 24.2497 25.6211 23.9414C25.9976 23.5272 26.6859 23.2499 26.6553 22.6357C27.4257 22.6639 28.1973 22.5668 28.9678 22.6221C29.6361 22.7315 30.1743 23.1373 30.752 23.4326C31.092 23.2949 31.465 22.9586 31.8545 23.168C32.1475 23.5233 32.1767 24.0142 32.5449 24.3271C32.9097 24.6589 33.2922 25.0228 33.8193 25.1299C33.5428 24.5239 32.7295 24.2966 32.4307 23.6836C32.7695 23.4224 33.1393 23.1952 33.4746 22.9316C33.7299 22.7434 33.6632 22.411 33.7432 22.1533C34.1419 21.8711 34.5912 21.6325 34.917 21.2773C35.33 20.862 34.7663 20.4149 34.6074 20.0137C34.9992 20.0172 35.3965 20.057 35.7871 20.0146C36.1294 19.9052 36.4251 19.6342 36.8145 19.6836C37.1919 19.6768 37.4318 19.9677 37.707 20.1523C38.6554 20.8501 39.8665 21.1526 41.0537 21.3408C40.7631 22.974 39.3659 24.2046 38.7588 25.7295C38.7964 25.7965 38.8715 25.9328 38.9092 26C39.368 25.2506 39.7907 24.4849 40.2812 23.752C40.699 23.086 41.1812 22.4218 41.333 21.6582C41.4154 21.0464 41.8136 20.5227 41.9736 19.9297C43.1278 20.0156 44.2853 19.9297 45.3936 19.625C44.9018 20.1556 44.7413 20.8787 45.0049 21.5293C45.232 21.985 45.8289 21.6672 46.1865 21.54C46.2159 21.5224 46.2435 21.5104 46.2705 21.501C46.2728 21.5033 46.275 21.5045 46.2773 21.5068C46.2727 21.522 46.2697 21.5373 46.2686 21.5537C46.265 21.5502 46.2623 21.5475 46.2588 21.5439C45.9905 22.5252 45.9266 23.588 45.3359 24.4717C44.8324 25.0423 44.1498 25.4625 43.5156 25.9072C42.9204 26.3282 42.143 26.4334 41.4043 26.4287C40.7784 26.4287 40.1417 26.5103 39.5205 26.4092C38.4851 25.9609 37.7341 25.1007 36.6504 24.7266C35.868 24.5278 35.0405 24.5718 34.2393 24.6318C33.818 25.2177 33.2558 25.7072 32.6182 26.1025C31.9898 26.5297 31.2379 26.798 30.6602 27.2852C30.1955 27.8029 30.0704 28.5758 29.3691 28.9111C28.795 29.2297 28.2196 28.7506 27.6455 28.6953C26.9243 28.62 26.0522 28.6542 25.5322 28.1201C24.8795 27.233 25.2052 26.1154 24.9287 25.1377C24.6476 24.759 24.2242 24.4815 23.7891 24.2568C23.016 23.8862 22.1092 24.006 21.2715 23.873V23.8721C19.6833 23.632 18.0891 23.1965 16.7773 22.333C15.1065 21.1705 13.3505 20.0767 11.3984 19.3271C11.4242 19.3178 11.4492 19.3078 11.4727 19.2949H11.4746C12.0309 19.304 12.3584 18.7159 12.9336 18.7959C13.6688 18.8558 14.4321 18.7024 14.9639 18.2178C15.1109 17.7189 14.962 17.1774 15.0996 16.668ZM34.2275 19.8574C34.2703 20.3374 35.0362 20.9015 34.4316 21.292C34.1187 21.5579 33.7285 21.7434 33.4414 22.0352C33.3485 22.2575 33.3494 22.5043 33.2354 22.7207C32.9836 22.9419 32.6896 23.1178 32.4131 23.3096C32.2542 23.1295 32.0917 22.9523 31.9258 22.7793C31.501 22.7605 31.0961 22.8506 30.7607 23.0918C30.1113 22.7353 29.4538 22.2707 28.6514 22.293C27.916 22.3036 27.1792 22.3371 26.4414 22.3301C26.378 22.1644 26.3191 21.9999 26.2627 21.833C26.6863 21.5906 27.2661 21.4122 27.4414 20.9463C27.3108 20.6994 27.1144 20.4889 26.9521 20.2607C28.643 20.1466 30.3481 20.5078 32.0342 20.2666C32.7648 20.1289 33.4757 19.8986 34.2275 19.8574ZM24.8281 14.2012C24.9799 14.5977 24.9184 15.0199 25.002 15.4258C25.1607 15.6797 25.4404 15.8527 25.6016 16.1055C25.5839 16.5973 25.5717 17.091 25.5576 17.584C25.5493 17.9969 25.1976 18.2984 24.9541 18.6172C25.647 19.4254 26.4707 20.1392 27.1143 20.9814C26.426 21.4368 25.6141 21.8717 24.7246 21.8047C23.8741 21.7788 22.9883 21.8782 22.166 21.6406C21.7012 21.5006 21.9072 21.0955 22.0166 20.7979C20.8966 20.0308 19.601 19.5149 18.3516 18.9443C18.7951 18.4443 19.2938 17.9876 19.7656 17.5088C20.0338 17.6724 20.2633 17.9744 20.6279 17.9238C21.4456 17.8874 21.9579 17.1816 22.0674 16.5156C22.5204 16.1074 23.2747 16.0964 23.6865 15.6328C24.0354 15.3034 23.7323 14.719 24.1895 14.459L24.1904 14.46C24.3703 14.3177 24.6047 14.2611 24.8281 14.2012ZM40.8174 14.6172C40.8727 15.0114 40.9221 15.4119 40.875 15.8096C40.7879 16.1566 40.4937 16.4626 40.5479 16.832C40.6973 17.4344 41.1851 17.9077 41.4004 18.4854C41.5968 19.3312 41.6938 20.275 41.1279 21.0303C39.8374 20.8703 38.5411 20.4878 37.5811 19.668C37.1481 19.2797 36.4131 19.2888 35.9307 19.6006C35.5566 19.8356 35.0734 19.6839 34.6523 19.6826C34.6653 19.3003 34.6101 18.8981 34.7666 18.5322C35.169 17.9664 36.0815 17.8108 36.2793 17.1133C36.4052 16.5791 37.2632 16.5468 37.2432 15.9443C37.9267 15.8996 38.5389 15.6092 39.1777 15.415C39.7763 15.2243 40.147 14.649 40.8174 14.6172ZM27.8057 11.1992C28.0903 11.2357 28.3726 11.2698 28.6572 11.3086C28.7737 11.8569 28.8457 12.4206 29.0928 12.9395C29.3622 13.4795 29.4477 14.1279 29.1523 14.6738C28.9041 14.9055 28.5327 14.9847 28.2715 15.2012C28.1844 15.4247 28.1582 15.6684 28.2041 15.9014C28.5136 16.1779 28.9636 16.2979 29.2236 16.625C29.7473 17.2834 30.8151 16.63 31.4492 17.1123C31.8869 17.4312 31.9732 17.9816 32.3779 18.3252C32.5921 18.5298 32.9241 18.4638 33.2041 18.4814C33.6439 18.4522 33.9239 18.8413 34.3271 18.9473C34.3177 19.152 34.3129 19.3595 34.3105 19.5654C33.153 19.5468 32.0978 20.0961 30.9355 20.0586C29.5319 20.2621 28.1141 19.6634 26.7305 20.0303C26.2904 19.5644 25.8214 19.1197 25.3379 18.6914C25.5896 18.3549 25.9087 18.018 25.9053 17.5898C25.91 17.0511 25.9442 16.5122 25.9336 15.9746C25.7948 15.7228 25.5243 15.5597 25.3125 15.3633C25.329 14.8598 25.3084 14.3507 24.9814 13.9189C25.1332 13.1518 25.1145 12.3747 24.8721 11.624C25.351 11.4687 25.8358 11.311 26.2676 11.0615V11.0605C26.7088 10.7887 27.2643 10.7089 27.6797 10.3936C27.7232 10.6629 27.761 10.9322 27.8057 11.1992ZM45.9043 12.5312C46.2443 12.4277 46.6355 12.2442 46.9873 12.4219C47.2388 12.6137 47.1208 12.9246 47.1338 13.1787C47.0962 13.7081 47.2391 14.2364 47.1768 14.7646C47.0261 14.9282 46.8503 15.074 46.6855 15.2246C46.8326 15.601 46.94 15.9903 46.9824 16.3867C46.773 16.5079 46.5635 16.6298 46.3564 16.751C46.3329 17.0109 46.3518 17.2781 46.2812 17.5322C45.8989 18.2122 44.8646 18.5921 44.9268 19.4473C43.9409 19.6461 42.9336 19.6921 41.9277 19.6016C41.8701 19.2121 41.8358 18.8189 41.7334 18.4365C41.5545 17.9084 41.1261 17.4826 40.9414 16.958C40.7955 16.4038 41.3723 15.9458 41.2559 15.3857C41.1288 14.6315 41.0369 13.8749 41.0957 13.1113C41.9956 12.8984 42.8991 12.5514 43.8496 12.6807C44.5461 12.7995 45.217 12.5711 45.9053 12.5322L45.9043 12.5312ZM24.2373 6.33301C24.4584 6.58361 24.5481 6.91063 24.7939 7.14355C25.1329 7.28934 25.7842 7.1933 25.7842 7.66504C25.7843 8.07785 26.1688 8.38487 26.1689 8.79297C26.1901 9.18478 26.2872 9.57458 26.2754 9.96875C26.2013 10.2911 26.0668 10.5972 25.9609 10.9102C25.4832 11.1243 24.8736 11.2018 24.5312 11.5947C24.7101 12.3442 24.8337 13.1089 24.6455 13.8701C24.2843 14.0666 23.8564 14.2272 23.627 14.5625C23.5341 14.8425 23.5855 15.1554 23.4385 15.4189C23.0561 15.8625 22.3473 15.8614 21.8955 16.2227C21.5453 16.4744 21.7026 16.9647 21.3877 17.2412C21.1359 17.513 20.6058 17.7958 20.2764 17.4688C20.0575 17.3687 19.8353 16.9628 19.5918 17.2275C19.0377 17.7452 18.5234 18.3014 18.0117 18.8555C17.0504 18.3319 16.7569 17.3021 15.9697 16.6338C16.3673 16.742 16.7453 17.0329 17.1816 16.9355C17.6357 16.8861 17.8881 16.4556 17.8965 16.0791C17.9341 15.1731 17.9762 14.2657 18.0762 13.3633C18.215 12.8103 18.7779 12.4488 19.0156 11.9346C19.105 11.3841 19.0612 10.8243 19.1152 10.2715C19.2576 10.0868 19.5765 10.0661 19.6777 9.85547C19.7236 9.53327 19.6944 9.2099 19.6943 8.8877C20.7297 8.96763 21.5655 8.3413 22.3867 7.87891L22.3877 7.87695C23.1137 7.47337 23.3242 6.47773 24.2373 6.33301ZM29.2646 9.8584C29.7422 10.1571 30.2374 10.4299 30.6973 10.751C31.062 11.011 31.3129 11.3737 31.6553 11.6514C31.9117 11.7795 32.213 11.7976 32.4941 11.8623C32.4391 12.5892 32.8919 13.2219 33.5 13.6631C34.0671 13.8149 34.6838 13.6771 35.2568 13.8359C36.1709 14.1159 37.219 13.4858 37.3828 12.6553C37.4652 12.2541 37.9712 12.1327 38.29 11.9092C38.6217 12.2797 38.8619 12.724 39.2793 13.0264C39.6981 13.3146 40.2467 13.2529 40.7373 13.2129C40.7208 13.5775 40.7212 13.941 40.7354 14.3057C39.9753 14.3363 39.5817 15.019 38.8887 15.1943C38.3406 15.3637 37.8113 15.589 37.2256 15.6338C36.8196 15.6809 36.9027 16.1875 36.5674 16.3311C36.1052 16.5347 35.9918 16.9884 35.7754 17.3613C35.2061 17.726 34.6603 18.1189 34.2109 18.6035C33.9945 18.44 33.7789 18.2748 33.5625 18.1113C33.2389 18.1302 32.9163 18.143 32.5928 18.1406C32.2115 17.6264 31.9842 16.9462 31.3076 16.6768C30.7643 16.5569 30.1963 16.6405 29.6436 16.6123C29.4083 16.23 28.9973 16.0108 28.5879 15.8037C28.2537 15.2672 29.1383 15.2094 29.4102 14.8965C29.8337 14.2611 29.724 13.4384 29.3887 12.79C29.1465 12.3031 29.129 11.762 28.9785 11.2539C28.8738 10.8927 28.3989 10.9572 28.0801 10.9102C28.0601 10.7042 28.0413 10.4977 28.0225 10.293L28.0244 10.2949C28.4444 10.1679 28.8623 10.0266 29.2646 9.8584ZM32.249 2.82812C32.3831 3.11749 32.3917 3.49634 32.7314 3.66699C33.2586 3.95997 33.561 4.49394 33.6504 5.0293C33.7928 5.88116 32.7538 6.57079 33.1221 7.42383C33.3997 8.06624 34.2235 8.28642 34.7295 8.75586C35.479 9.45595 36.2102 10.1737 36.8867 10.9326C37.1713 11.2571 37.5065 11.5451 37.8887 11.7803C37.524 11.9885 37.0711 12.1902 37.0205 12.623C36.9064 13.2337 36.1616 13.7453 35.4697 13.5605C34.9168 13.4124 34.3411 13.4362 33.7705 13.415C33.5236 13.3126 33.36 13.1016 33.1836 12.9229C32.8097 12.5828 32.9166 12.0665 32.7754 11.6406C32.3154 11.5101 31.7616 11.4804 31.498 11.0605C30.8733 10.2287 29.5395 10.0277 29.1523 9.03711C28.9888 8.75707 29.2483 8.47397 29.2871 8.19629C29.2585 7.68596 28.5244 7.3483 28.6816 6.81445C29.1311 6.56854 29.5365 6.27371 29.7295 5.81836C30.0565 5.70315 30.4555 5.65281 30.6602 5.3623C30.7531 5.00116 30.8136 4.63052 30.8184 4.25879C30.7548 3.94228 30.5178 3.68065 30.3672 3.39355C30.4166 3.30171 30.5133 3.11633 30.5615 3.02344L30.5625 3.02441C31.1247 2.95387 31.6974 2.95271 32.249 2.82812ZM40.3662 1.3916C41.1332 1.34215 41.8955 0.94883 42.6543 1.24512C42.779 1.46868 42.8819 1.70282 43.0195 1.92285C43.5006 2.01221 43.9957 1.98692 44.4814 2.05273C44.6742 2.66091 43.9451 2.92697 43.7568 3.41992C43.8745 4.02228 44.005 4.64853 44.3721 5.17676C44.2309 5.42464 43.9783 5.59746 43.7949 5.81836C43.7043 6.40545 43.7747 7.00235 43.7959 7.5918C43.8253 7.9895 43.9128 8.48477 44.3623 8.67773C44.9317 8.79056 45.5119 8.67798 46.0859 8.66504C46.2954 9.22855 46.5596 9.80157 46.542 10.4062C46.2326 11.0168 45.4907 11.4428 45.5186 12.1826C44.5198 12.6344 43.4044 12.1584 42.375 12.4629C41.569 12.6488 40.7775 12.9906 39.9268 12.9482C39.1293 12.8539 39.0007 11.9887 38.3701 11.6699C37.9056 11.4464 37.5116 11.1301 37.1553 10.7832C37.3906 10.5679 37.6836 10.3826 37.8213 10.0967C37.8836 9.73793 37.8206 9.37202 37.8936 9.01562C38.0782 8.68389 38.5172 8.59419 38.8467 8.41895C38.8879 8.20482 38.9445 7.99304 38.9551 7.77539C38.7339 6.23523 38.0329 4.70883 38.3564 3.1416C38.4541 2.73933 38.6466 2.35585 38.6631 1.93945C39.2655 1.83709 39.7346 1.40041 40.3652 1.39453L40.3662 1.3916ZM33.0449 0C33.6556 0.16708 34.3019 0.259437 34.8408 0.583008C35.0253 0.543058 35.2085 0.500501 35.3906 0.457031C35.533 0.841787 35.604 1.24535 35.7734 1.62305C36.1205 1.43599 36.4276 1.18528 36.8135 1.06055C37.0498 1.17458 37.1863 1.38373 37.3262 1.58008C37.4921 1.47183 37.661 1.36837 37.834 1.26953C37.9858 1.72605 38.0358 2.20416 38.0723 2.6748C38.004 3.2984 37.8467 3.92346 37.9385 4.55176C38.0761 5.48115 38.3103 6.39642 38.5244 7.31641C38.5821 7.58821 38.6347 7.87331 38.5664 8.14746C38.2347 8.38842 37.7396 8.49082 37.5771 8.88574C37.4607 9.27396 37.5515 9.68266 37.4609 10.0732C37.3281 10.2531 37.1244 10.3779 36.9551 10.5283C36.3315 9.88359 35.6981 9.24407 35.0498 8.61816C34.5945 8.17811 33.9419 7.93977 33.5195 7.47266C33.1726 6.93039 33.6448 6.37086 33.8496 5.86621C34.2755 4.96732 33.7577 3.90251 32.8848 3.38477C32.3729 2.79881 32.4967 1.96169 32.6885 1.29102C33.0825 0.943916 32.9781 0.445901 33.0439 0H33.0449Z" fill="#B3B3B3"/>
</svg>
