<svg width="24" height="18" viewBox="0 0 24 18" fill="none" xmlns="http://www.w3.org/2000/svg">
<path d="M11 4C11 6.20914 9.20914 8 7 8C4.79086 8 3 6.20914 3 4C3 1.79086 4.79086 0 7 0C9.20914 0 11 1.79086 11 4Z" fill="#FEFEFE"/>
<path d="M21 4C21 6.20914 19.2091 8 17 8C14.7909 8 13 6.20914 13 4C13 1.79086 14.7909 0 17 0C19.2091 0 21 1.79086 21 4Z" fill="#FEFEFE"/>
<path d="M0.356893 13.2155C0.730832 11.3458 2.37249 10 4.27922 10H9.72078C11.6275 10 13.2692 11.3458 13.6431 13.2155L13.947 14.735C13.9822 14.9112 14 15.0905 14 15.2703C14 16.7779 12.7779 18 11.2703 18H2.72971C1.22213 18 0 16.7779 0 15.2703C0 15.0905 0.0177559 14.9112 0.053009 14.735L0.356893 13.2155Z" fill="#FEFEFE"/>
<path d="M19.2206 9.99995C21.1274 9.99995 22.7695 11.3461 23.1435 13.2158L23.4472 14.7353C23.4824 14.9114 23.4999 15.0909 23.4999 15.2705C23.4998 16.7779 22.2778 17.9998 20.7704 18H14.2294C14.0217 17.9999 13.9988 17.7134 14.1767 17.6064C14.9693 17.1296 15.4999 16.2631 15.4999 15.2705C15.4999 15.0909 15.4824 14.9114 15.4472 14.7353L15.1435 13.2158C14.9342 12.1695 14.4999 11.5 13.4999 10.5C12.9395 9.93946 14.9395 9.99995 15.7792 9.99995H19.2206Z" fill="#FEFEFE"/>
</svg>
