<svg width="22" height="22" viewBox="0 0 22 22" fill="none" xmlns="http://www.w3.org/2000/svg">
<path d="M10.32 0.630601C10.7036 0.274907 11.2964 0.274907 11.68 0.630601L14.02 2.80069C14.1954 2.96334 14.4233 3.05774 14.6623 3.06675L17.8515 3.18691C18.3742 3.2066 18.7934 3.62582 18.8131 4.14855L18.9333 7.33767C18.9423 7.57671 19.0367 7.80461 19.1993 7.98L21.3694 10.32C21.7251 10.7036 21.7251 11.2964 21.3694 11.68L19.1993 14.02C19.0367 14.1954 18.9423 14.4233 18.9333 14.6623L18.8131 17.8515C18.7934 18.3742 18.3742 18.7934 17.8515 18.8131L14.6623 18.9333C14.4233 18.9423 14.1954 19.0367 14.02 19.1993L11.68 21.3694C11.2964 21.7251 10.7036 21.7251 10.32 21.3694L7.98 19.1993C7.80461 19.0367 7.57671 18.9423 7.33767 18.9333L4.14855 18.8131C3.62582 18.7934 3.2066 18.3742 3.18691 17.8515L3.06675 14.6623C3.05774 14.4233 2.96334 14.1954 2.80069 14.02L0.630601 11.68C0.274906 11.2964 0.274907 10.7036 0.630601 10.32L2.80069 7.98C2.96334 7.80461 3.05774 7.57671 3.06675 7.33767L3.18691 4.14855C3.2066 3.62582 3.62582 3.2066 4.14855 3.18691L7.33767 3.06675C7.57671 3.05774 7.80461 2.96334 7.98 2.80069L10.32 0.630601Z" fill="#FEFEFE"/>
<circle cx="11" cy="11" r="4" fill="#B3B3B3"/>
</svg>
