<svg width="21" height="22" viewBox="0 0 21 22" fill="none" xmlns="http://www.w3.org/2000/svg">
<path d="M17.3399 5C18.7838 5 19.9543 3.88071 19.9543 2.5C19.9543 1.11929 18.7838 0 17.3399 0C15.896 0 14.7255 1.11929 14.7255 2.5C14.7255 3.88071 15.896 5 17.3399 5Z" fill="#A6A8AF"/>
<path d="M7.92784 2.9377L5.80531 4.20625C5.43165 4.42957 5.31381 4.79894 5.31381 5.19575C5.31381 5.98119 6.21728 6.46003 6.9138 6.04375L8.88874 4.86341C9.25517 4.64441 9.72473 4.66348 10.0704 4.91141L11.5883 6L7.71129 9.70739C7.50765 9.90213 7.32117 10.1126 7.15377 10.3367L5.25749 12.8754C4.98231 13.2438 4.48264 13.3894 4.03935 13.2305L1.35052 12.2663C0.915617 12.1103 0.425683 12.2614 0.16804 12.631C-0.157506 13.098 0.0058042 13.7314 0.52103 14.0001L3.10634 15.3486C4.39637 16.0215 6.00197 15.7479 6.96962 14.6904L8.97392 12.5L10.8564 15.0201C11.3067 15.623 11.3716 16.4144 11.0251 17.077L9.20776 20.5528C8.8601 21.2177 9.36571 22 10.1431 22C10.6353 22 11.109 21.9167 11.3544 21.4472L13.4158 17.5049C13.9046 16.5701 13.8494 15.4595 13.2701 14.5732L11.5883 12L14.7255 9L16.1605 9.91482C17.4514 10.7378 18.8803 10.6756 20.2849 10.2279C20.7713 10.0729 21 9.64467 21 9.18046C21 8.56252 20.4198 8.09248 19.7823 8.19407C19.0605 8.30911 18.0156 8.69488 17.4813 8.01366C15.7352 5.78731 13.6743 4.21933 11.1141 2.85922C10.1162 2.32907 8.8959 2.35913 7.92784 2.9377Z" fill="#A6A8AF"/>
</svg>
