<svg width="50" height="28" viewBox="0 0 50 28" fill="none" xmlns="http://www.w3.org/2000/svg">
<g filter="url(#filter0_d_2060_2073)">
<path d="M0 14C0 6.26801 6.26801 0 14 0H36C43.732 0 50 6.26801 50 14C50 21.732 43.732 28 36 28H14C6.26801 28 0 21.732 0 14Z" fill="#B3B3B3"/>
<path d="M24 14C24 19.5228 19.5228 24 14 24C8.47715 24 4 19.5228 4 14C4 8.47715 8.47715 4 14 4C19.5228 4 24 8.47715 24 14Z" fill="#FEFEFE"/>
</g>
<defs>
<filter id="filter0_d_2060_2073" x="-2" y="0" width="54" height="32" filterUnits="userSpaceOnUse" color-interpolation-filters="sRGB">
<feFlood flood-opacity="0" result="BackgroundImageFix"/>
<feColorMatrix in="SourceAlpha" type="matrix" values="0 0 0 0 0 0 0 0 0 0 0 0 0 0 0 0 0 0 127 0" result="hardAlpha"/>
<feOffset dy="2"/>
<feGaussianBlur stdDeviation="1"/>
<feComposite in2="hardAlpha" operator="out"/>
<feColorMatrix type="matrix" values="0 0 0 0 0 0 0 0 0 0 0 0 0 0 0 0 0 0 0.05 0"/>
<feBlend mode="normal" in2="BackgroundImageFix" result="effect1_dropShadow_2060_2073"/>
<feBlend mode="normal" in="SourceGraphic" in2="effect1_dropShadow_2060_2073" result="shape"/>
</filter>
</defs>
</svg>
