<svg width="50" height="28" viewBox="0 0 50 28" fill="none" xmlns="http://www.w3.org/2000/svg">
<g filter="url(#filter0_d_2060_2070)">
<path d="M0 14C0 6.26801 6.26801 0 14 0H36C43.732 0 50 6.26801 50 14C50 21.732 43.732 28 36 28H14C6.26801 28 0 21.732 0 14Z" fill="#3A3A3A"/>
<path d="M46 14C46 19.5228 41.5228 24 36 24C30.4772 24 26 19.5228 26 14C26 8.47715 30.4772 4 36 4C41.5228 4 46 8.47715 46 14Z" fill="#FEFEFE"/>
</g>
<defs>
<filter id="filter0_d_2060_2070" x="-2" y="0" width="54" height="32" filterUnits="userSpaceOnUse" color-interpolation-filters="sRGB">
<feFlood flood-opacity="0" result="BackgroundImageFix"/>
<feColorMatrix in="SourceAlpha" type="matrix" values="0 0 0 0 0 0 0 0 0 0 0 0 0 0 0 0 0 0 127 0" result="hardAlpha"/>
<feOffset dy="2"/>
<feGaussianBlur stdDeviation="1"/>
<feComposite in2="hardAlpha" operator="out"/>
<feColorMatrix type="matrix" values="0 0 0 0 0 0 0 0 0 0 0 0 0 0 0 0 0 0 0.05 0"/>
<feBlend mode="normal" in2="BackgroundImageFix" result="effect1_dropShadow_2060_2070"/>
<feBlend mode="normal" in="SourceGraphic" in2="effect1_dropShadow_2060_2070" result="shape"/>
</filter>
</defs>
</svg>
